# xmcd
#
# Track frame offsets: 
#        150
#        11815
#        26108
#        38037
#        52091
#        66085
#        79567
#        93607
#        108759
#        123643
#        136990
#        150806
#        163733
#        176665
#        190449
#        203700
#        215848
#        229045
#        241924
#        256357
#
# Disc length: 3554 seconds
#
# Revision: 1
# Processed by: cddbd v1.5.2PL0 Copyright (c) Steve Scherf et al.
# Submitted via: ExactAudioCopyFreeDBPlugin 1.0
#
DISCID=150de014
DTITLE=Muddy Waters - Muddy Waters Blues Greats
DYEAR=2011
DGENRE=Blues
TTITLE0=Gypsy Woman
TTITLE1=I Feel Like Going' Home
TTITLE2=You're Gomnna Miss Me
TTITLE3=You're Gonna Need My Help I Said
TTITLE4=Screamin' And Cryin'
TTITLE5=Rollin' And Tumblin' (Part 1)
TTITLE6=Rollin' Stone
TTITLE7=Honey Bee
TTITLE8=Still A Fool
TTITLE9=She Moves Me
TTITLE10=Mad Love (I Want You To Love Me)
TTITLE11=I'm Your Hoochie Coochie Man
TTITLE12=Just Make Love To Me
TTITLE13=I'm Ready
TTITLE14=Mannish Boy
TTITLE15=Trouble No More
TTITLE16=Don't Go No Farther
TTITLE17=Got My Mojo Workin'
TTITLE18=Rock Me
TTITLE19=Tiger In Your Tank
EXTD=
EXTT0=
EXTT1=
EXTT2=
EXTT3=
EXTT4=
EXTT5=
EXTT6=
EXTT7=
EXTT8=
EXTT9=
EXTT10=
EXTT11=
EXTT12=
EXTT13=
EXTT14=
EXTT15=
EXTT16=
EXTT17=
EXTT18=
EXTT19=
PLAYORDER=
